<svg width="72" height="67" viewBox="0 0 72 67" fill="none" xmlns="http://www.w3.org/2000/svg">
<path fill-rule="evenodd" clip-rule="evenodd" d="M35.7562 6.11273C47.1473 6.11273 56.3816 14.7419 56.3816 25.3864C56.3816 28.6049 55.5398 31.6374 54.0452 34.3058L35.7562 63.9338L17.8909 35.0244C16.1327 32.1873 15.1309 28.8975 15.1309 25.3864C15.1309 14.7419 24.3652 6.11273 35.7562 6.11273ZM35.7562 11.6195C27.6198 11.6195 21.0239 17.7832 21.0239 25.3864C21.0239 27.5728 21.5636 29.6706 22.585 31.5644L23.08 32.4092L35.7562 52.9203L48.522 32.2647C49.8055 30.1936 50.4886 27.846 50.4886 25.3864C50.4886 17.7832 43.8927 11.6195 35.7562 11.6195ZM35.7562 17.1263C40.6381 17.1263 44.5957 20.8245 44.5957 25.3864C44.5957 29.9484 40.6381 33.6466 35.7562 33.6466C30.8744 33.6466 26.9168 29.9484 26.9168 25.3864C26.9168 20.8245 30.8744 17.1263 35.7562 17.1263ZM35.7562 22.633C34.129 22.633 32.8098 23.8658 32.8098 25.3864C32.8098 26.9071 34.129 28.1398 35.7562 28.1398C37.3835 28.1398 38.7027 26.9071 38.7027 25.3864C38.7027 23.8658 37.3835 22.633 35.7562 22.633Z" fill="#C0B7E8"/>
</svg>
