<svg width="102" height="98" viewBox="0 0 102 98" fill="none" xmlns="http://www.w3.org/2000/svg">
<path d="M100.772 38.9482C102.108 46.2339 93.9123 44.2933 93.9123 44.2933C90.4822 35.1691 84.9941 36.0202 84.9941 36.0202C89.2907 38.9822 89.6157 41.5016 89.6157 41.5016C78.17 33.8413 62.6082 40.0036 56.6868 42.8974C53.365 38.4715 46.6493 28.5643 49.0323 24.0703C52.1735 18.1804 58.5643 21.5509 58.5643 21.5509C71.4904 21.3467 70.7682 16.9888 70.7682 16.9888C67.3381 19.5082 57.2284 16.9888 57.2284 16.9888C66.0022 16.9888 69.7212 13.6183 69.7212 13.6183C63.1859 15.1504 55.8925 8.57961 55.8925 8.57961C53.2206 -4.32362 40.8723 1.1577 40.8723 1.1577C48.599 -0.101982 46.541 7.62634 46.541 7.62634C36.8645 10.8607 37.7672 16.0356 37.7672 16.0356C40.9084 11.9842 43.5803 11.6777 43.5803 11.6777C34.7343 23.4234 43.2553 39.7652 45.7828 44.0209C41.1612 47.051 30.3293 53.7239 25.455 51.4088C19.2086 48.4468 22.7831 42.4208 22.7831 42.4208C22.6387 30.2325 18.0171 30.9134 18.0171 30.9134C20.6889 34.1477 18.0171 43.6805 18.0171 43.6805C18.0171 35.4074 14.4426 31.9007 14.4426 31.9007C16.0674 38.063 9.09886 44.9401 9.09886 44.9401C-4.58539 47.4595 1.2277 59.1031 1.2277 59.1031C-0.108225 51.8173 8.08788 53.7579 8.08788 53.7579C11.518 62.8821 17.0061 62.031 17.0061 62.031C12.7095 59.069 12.3845 56.5496 12.3845 56.5496C24.4801 64.6525 41.1973 57.2986 46.2521 54.7112C49.6461 59.3073 55.9647 68.772 53.6178 73.1638C50.4766 79.0537 44.0858 75.6832 44.0858 75.6832C31.1597 75.8194 31.8819 80.1772 31.8819 80.1772C35.312 77.6578 45.4217 80.1772 45.4217 80.1772C36.6479 80.1772 32.9289 83.5477 32.9289 83.5477C39.4642 82.0156 46.7576 88.5864 46.7576 88.5864C49.4295 101.49 61.7778 96.0083 61.7778 96.0083C54.0511 97.268 56.1091 89.5397 56.1091 89.5397C65.7856 86.3054 64.8829 81.1305 64.8829 81.1305C61.7417 85.1819 59.0698 85.4883 59.0698 85.4883C67.7353 74.015 59.7558 58.1157 57.0479 53.4515C61.9583 50.2172 71.8875 44.4295 76.473 46.6084C82.7194 49.5703 79.1449 55.5964 79.1449 55.5964C79.2893 67.7846 83.9109 67.1037 83.9109 67.1037C81.239 63.8694 83.9109 54.3367 83.9109 54.3367C83.9109 62.6097 87.4854 66.1164 87.4854 66.1164C85.8606 59.9542 92.8291 53.077 92.8291 53.077C106.586 50.5917 100.772 38.9482 100.772 38.9482Z" fill="url(#paint0_linear_1_6)"/>
<defs>
<linearGradient id="paint0_linear_1_6" x1="50.9966" y1="0.00115967" x2="50.9966" y2="97.1649" gradientUnits="userSpaceOnUse">
<stop stop-color="#C0B7E8"/>
<stop offset="1" stop-color="#8176AF"/>
</linearGradient>
</defs>
</svg>
