<svg width="61" height="56" viewBox="0 0 61 56" fill="none" xmlns="http://www.w3.org/2000/svg">
<path d="M37.0078 15.2987C38.8385 15.6324 40.6558 16.3869 41.9747 17.6194C43.2936 18.8519 44.101 20.5501 44.4582 22.2608M38.2495 7.17618C42.053 7.57102 45.4756 9.29051 48.1834 11.8176C50.8911 14.3447 52.723 17.5467 53.1503 21.1004M53.1489 38.4516V44.7402C53.1594 47.1441 50.8463 49.1515 48.249 48.9326C25.8324 48.949 8.44818 32.5531 8.46573 11.7461C8.23181 9.332 10.3693 7.17864 12.9385 7.17638H19.6815C20.7723 7.16637 21.8298 7.52661 22.6568 8.18996C25.0082 10.0759 26.5206 16.4771 25.9387 19.0217C25.4844 21.0085 23.3412 22.3984 21.8842 23.7573C25.0838 29.0052 29.743 33.3504 35.37 36.3345C36.8271 34.9756 38.3175 32.9768 40.4477 32.5531C43.1805 32.0096 50.0746 33.4249 52.0847 35.6375C52.7975 36.422 53.1763 37.4236 53.1489 38.4516Z" stroke="#C0B7E8" stroke-width="6" stroke-linecap="round" stroke-linejoin="round"/>
</svg>
